<svg xmlns="http://www.w3.org/2000/svg" version="1.1" xmlns:xlink="http://www.w3.org/1999/xlink" xmlns:svgjs="http://svgjs.com/svgjs" width="4000" height="4000" preserveAspectRatio="none" viewBox="0 0 4000 4000"><g clip-path="url(&quot;#SvgjsClipPath1735&quot;)" fill="none"><rect width="4000" height="4000" x="0" y="0" fill="url(#SvgjsRadialGradient1736)"></rect><circle r="666.665" cx="-291.41" cy="212.82" stroke="#6167f4" stroke-opacity="0.6" stroke-width="2"></circle><circle r="829.65" cx="3672.92" cy="1690.43" stroke="#6167f4" stroke-opacity="0.6" stroke-width="2"></circle><circle r="564.815" cx="16.12" cy="2156.97" stroke="#6167f4" stroke-opacity="0.6" stroke-width="2"></circle><circle r="988.675" cx="2911.05" cy="957.26" stroke="#6167f4" stroke-opacity="0.6" stroke-width="2"></circle><circle r="1186.985" cx="1486.04" cy="3760.72" stroke="#6167f4" stroke-opacity="0.6" stroke-width="2"></circle><circle r="974.04" cx="3455.96" cy="2181.35" stroke="#6167f4" stroke-opacity="0.6" stroke-width="2"></circle><circle r="896.48" cx="857.54" cy="3790.24" stroke="#6167f4" stroke-opacity="0.6" stroke-width="2"></circle><circle r="1165.66" cx="2465.49" cy="3394.9" stroke="#6167f4" stroke-opacity="0.6" stroke-width="2"></circle><circle r="880.21" cx="2034.69" cy="3835.39" stroke="#6167f4" stroke-opacity="0.6" stroke-width="2"></circle><circle r="1221.39" cx="1558.32" cy="2962.49" stroke="#6167f4" stroke-opacity="0.6" stroke-width="2"></circle><circle r="981.76" cx="2402.25" cy="3330.51" stroke="#6167f4" stroke-opacity="0.6" stroke-width="2"></circle><circle r="821.64" cx="3091.57" cy="423.72" stroke="#6167f4" stroke-opacity="0.6" stroke-width="2"></circle><circle r="868.43" cx="3518.5" cy="2713.16" stroke="#6167f4" stroke-opacity="0.6" stroke-width="2"></circle><circle r="776.66" cx="2873.26" cy="3321.54" stroke="#6167f4" stroke-opacity="0.6" stroke-width="2"></circle><circle r="838.2" cx="2433.57" cy="1343.96" stroke="#6167f4" stroke-opacity="0.6" stroke-width="2"></circle><circle r="940.505" cx="3331.21" cy="3250.77" stroke="#6167f4" stroke-opacity="0.6" stroke-width="2"></circle><circle r="973.755" cx="2225.36" cy="58.42" stroke="#6167f4" stroke-opacity="0.6" stroke-width="2"></circle><circle r="1105.91" cx="2752.62" cy="1077.86" stroke="#6167f4" stroke-opacity="0.6" stroke-width="2"></circle><circle r="829.715" cx="1835.26" cy="1717.55" stroke="#6167f4" stroke-opacity="0.6" stroke-width="2"></circle><circle r="851.505" cx="1346.66" cy="2065.13" stroke="#6167f4" stroke-opacity="0.6" stroke-width="2"></circle><circle r="1106.22" cx="2143.74" cy="307.32" stroke="#6167f4" stroke-opacity="0.6" stroke-width="2"></circle><circle r="789.515" cx="518.31" cy="624.86" stroke="#6167f4" stroke-opacity="0.6" stroke-width="2"></circle><circle r="772.495" cx="3353.32" cy="967.5" stroke="#6167f4" stroke-opacity="0.6" stroke-width="2"></circle><circle r="1109.11" cx="2664.73" cy="1164.19" stroke="#6167f4" stroke-opacity="0.6" stroke-width="2"></circle><circle r="338.46" cx="3541.75" cy="2896.44" stroke="#6167f4" stroke-opacity="0.6" stroke-width="2"></circle><circle r="1196.945" cx="927.64" cy="1900.54" stroke="#6167f4" stroke-opacity="0.6" stroke-width="2"></circle><circle r="896.12" cx="134.34" cy="1582.81" stroke="#6167f4" stroke-opacity="0.6" stroke-width="2"></circle><circle r="1135.72" cx="2534.37" cy="2346.69" stroke="#6167f4" stroke-opacity="0.6" stroke-width="2"></circle><circle r="1331.57" cx="126.46" cy="384.11" stroke="#6167f4" stroke-opacity="0.6" stroke-width="2"></circle><circle r="1180.8" cx="3526.85" cy="2296.61" stroke="#6167f4" stroke-opacity="0.6" stroke-width="2"></circle><circle r="357.4" cx="3697.58" cy="2316.92" stroke="#6167f4" stroke-opacity="0.6" stroke-width="2"></circle><circle r="686.705" cx="290.43" cy="3111.17" stroke="#6167f4" stroke-opacity="0.6" stroke-width="2"></circle><circle r="1044.6" cx="455.66" cy="3358.06" stroke="#6167f4" stroke-opacity="0.6" stroke-width="2"></circle><circle r="515.005" cx="680.69" cy="3998.77" stroke="#6167f4" stroke-opacity="0.6" stroke-width="2"></circle><circle r="778.08" cx="3576.17" cy="437.96" stroke="#6167f4" stroke-opacity="0.6" stroke-width="2"></circle><circle r="783.16" cx="3520.75" cy="1626.44" stroke="#6167f4" stroke-opacity="0.6" stroke-width="2"></circle><circle r="404.125" cx="3374.51" cy="3641.9" stroke="#6167f4" stroke-opacity="0.6" stroke-width="2"></circle></g><defs><clipPath id="SvgjsClipPath1735"><rect width="4000" height="4000" x="0" y="0"></rect></clipPath><radialGradient cx="50%" cy="0%" r="4472.14" gradientUnits="userSpaceOnUse" id="SvgjsRadialGradient1736"><stop stop-color="rgba(42, 60, 80, 1)" offset="0"></stop><stop stop-color="rgba(0, 22, 44, 1)" offset="1"></stop></radialGradient></defs></svg>