<svg xmlns="http://www.w3.org/2000/svg" version="1.1" xmlns:xlink="http://www.w3.org/1999/xlink" xmlns:svgjs="http://svgjs.com/svgjs" width="4000" height="4000" preserveAspectRatio="none" viewBox="0 0 4000 4000"><g mask="url(&quot;#SvgjsMask1929&quot;)" fill="none"><rect width="4000" height="4000" x="0" y="0" fill="url(#SvgjsRadialGradient1930)"></rect><path d="M2654 1639L2653 2674" stroke-width="8" stroke="url(#SvgjsLinearGradient1931)" stroke-linecap="round" class="Up"></path><path d="M88 968L87 -1304" stroke-width="10" stroke="url(#SvgjsLinearGradient1932)" stroke-linecap="round" class="Down"></path><path d="M2410 3258L2409 6230" stroke-width="10" stroke="url(#SvgjsLinearGradient1932)" stroke-linecap="round" class="Down"></path><path d="M2314 1979L2313 4203" stroke-width="8" stroke="url(#SvgjsLinearGradient1933)" stroke-linecap="round" class="Down"></path><path d="M3958 3662L3957 6451" stroke-width="10" stroke="url(#SvgjsLinearGradient1934)" stroke-linecap="round" class="Up"></path><path d="M753 699L752 -1046" stroke-width="6" stroke="url(#SvgjsLinearGradient1932)" stroke-linecap="round" class="Down"></path><path d="M2555 2838L2554 5462" stroke-width="8" stroke="url(#SvgjsLinearGradient1931)" stroke-linecap="round" class="Up"></path><path d="M1523 3171L1522 2143" stroke-width="10" stroke="url(#SvgjsLinearGradient1934)" stroke-linecap="round" class="Up"></path><path d="M2812 3643L2811 4716" stroke-width="6" stroke="url(#SvgjsLinearGradient1934)" stroke-linecap="round" class="Up"></path><path d="M1305 1429L1304 3643" stroke-width="8" stroke="url(#SvgjsLinearGradient1934)" stroke-linecap="round" class="Up"></path><path d="M2298 1111L2297 2256" stroke-width="8" stroke="url(#SvgjsLinearGradient1932)" stroke-linecap="round" class="Down"></path><path d="M2077 92L2076 1919" stroke-width="8" stroke="url(#SvgjsLinearGradient1934)" stroke-linecap="round" class="Up"></path><path d="M1481 1107L1480 2178" stroke-width="10" stroke="url(#SvgjsLinearGradient1932)" stroke-linecap="round" class="Down"></path><path d="M2449 2052L2448 783" stroke-width="8" stroke="url(#SvgjsLinearGradient1931)" stroke-linecap="round" class="Up"></path><path d="M462 1346L461 3815" stroke-width="10" stroke="url(#SvgjsLinearGradient1934)" stroke-linecap="round" class="Up"></path><path d="M3971 534L3970 3070" stroke-width="6" stroke="url(#SvgjsLinearGradient1932)" stroke-linecap="round" class="Down"></path><path d="M3781 1855L3780 3717" stroke-width="6" stroke="url(#SvgjsLinearGradient1932)" stroke-linecap="round" class="Down"></path><path d="M72 374L71 2314" stroke-width="10" stroke="url(#SvgjsLinearGradient1931)" stroke-linecap="round" class="Up"></path><path d="M360 912L359 3510" stroke-width="8" stroke="url(#SvgjsLinearGradient1931)" stroke-linecap="round" class="Up"></path><path d="M2891 2689L2890 4951" stroke-width="8" stroke="url(#SvgjsLinearGradient1932)" stroke-linecap="round" class="Down"></path><path d="M1607 2869L1606 -128" stroke-width="8" stroke="url(#SvgjsLinearGradient1933)" stroke-linecap="round" class="Down"></path><path d="M3167 3735L3166 6235" stroke-width="10" stroke="url(#SvgjsLinearGradient1932)" stroke-linecap="round" class="Down"></path><path d="M3975 2022L3974 -605" stroke-width="10" stroke="url(#SvgjsLinearGradient1933)" stroke-linecap="round" class="Down"></path><path d="M2111 433L2110 1855" stroke-width="8" stroke="url(#SvgjsLinearGradient1932)" stroke-linecap="round" class="Down"></path><path d="M3362 836L3361 3637" stroke-width="10" stroke="url(#SvgjsLinearGradient1934)" stroke-linecap="round" class="Up"></path><path d="M2787 2206L2786 3507" stroke-width="10" stroke="url(#SvgjsLinearGradient1934)" stroke-linecap="round" class="Up"></path><path d="M682 617L681 -1392" stroke-width="10" stroke="url(#SvgjsLinearGradient1934)" stroke-linecap="round" class="Up"></path><path d="M3228 2130L3227 4629" stroke-width="8" stroke="url(#SvgjsLinearGradient1932)" stroke-linecap="round" class="Down"></path><path d="M2990 1403L2989 -66" stroke-width="6" stroke="url(#SvgjsLinearGradient1931)" stroke-linecap="round" class="Up"></path><path d="M3138 1459L3137 3216" stroke-width="8" stroke="url(#SvgjsLinearGradient1934)" stroke-linecap="round" class="Up"></path><path d="M1544 1757L1543 4286" stroke-width="10" stroke="url(#SvgjsLinearGradient1932)" stroke-linecap="round" class="Down"></path><path d="M386 1368L385 3068" stroke-width="10" stroke="url(#SvgjsLinearGradient1931)" stroke-linecap="round" class="Up"></path><path d="M3544 753L3543 -877" stroke-width="8" stroke="url(#SvgjsLinearGradient1933)" stroke-linecap="round" class="Down"></path><path d="M1409 1960L1408 108" stroke-width="10" stroke="url(#SvgjsLinearGradient1934)" stroke-linecap="round" class="Up"></path><path d="M1712 874L1711 3665" stroke-width="8" stroke="url(#SvgjsLinearGradient1934)" stroke-linecap="round" class="Up"></path><path d="M3033 1454L3032 -525" stroke-width="8" stroke="url(#SvgjsLinearGradient1932)" stroke-linecap="round" class="Down"></path><path d="M1788 3999L1787 5425" stroke-width="10" stroke="url(#SvgjsLinearGradient1933)" stroke-linecap="round" class="Down"></path><path d="M245 3913L244 1408" stroke-width="10" stroke="url(#SvgjsLinearGradient1931)" stroke-linecap="round" class="Up"></path><path d="M670 3315L669 5195" stroke-width="10" stroke="url(#SvgjsLinearGradient1934)" stroke-linecap="round" class="Up"></path><path d="M196 3083L195 4744" stroke-width="10" stroke="url(#SvgjsLinearGradient1934)" stroke-linecap="round" class="Up"></path><path d="M2912 43L2911 -1114" stroke-width="10" stroke="url(#SvgjsLinearGradient1931)" stroke-linecap="round" class="Up"></path><path d="M971 3240L970 6209" stroke-width="6" stroke="url(#SvgjsLinearGradient1932)" stroke-linecap="round" class="Down"></path><path d="M3819 1267L3818 -1562" stroke-width="10" stroke="url(#SvgjsLinearGradient1932)" stroke-linecap="round" class="Down"></path><path d="M910 3756L909 2185" stroke-width="6" stroke="url(#SvgjsLinearGradient1932)" stroke-linecap="round" class="Down"></path><path d="M1310 1563L1309 2736" stroke-width="8" stroke="url(#SvgjsLinearGradient1934)" stroke-linecap="round" class="Up"></path><path d="M1044 2992L1043 4218" stroke-width="6" stroke="url(#SvgjsLinearGradient1934)" stroke-linecap="round" class="Up"></path><path d="M977 1246L976 -752" stroke-width="6" stroke="url(#SvgjsLinearGradient1934)" stroke-linecap="round" class="Up"></path><path d="M2273 714L2272 3036" stroke-width="10" stroke="url(#SvgjsLinearGradient1931)" stroke-linecap="round" class="Up"></path><path d="M3388 373L3387 -962" stroke-width="10" stroke="url(#SvgjsLinearGradient1933)" stroke-linecap="round" class="Down"></path><path d="M2133 3154L2132 1826" stroke-width="6" stroke="url(#SvgjsLinearGradient1932)" stroke-linecap="round" class="Down"></path><path d="M1489 3519L1488 5060" stroke-width="8" stroke="url(#SvgjsLinearGradient1934)" stroke-linecap="round" class="Up"></path><path d="M3813 2367L3812 671" stroke-width="6" stroke="url(#SvgjsLinearGradient1934)" stroke-linecap="round" class="Up"></path><path d="M1743 2837L1742 4734" stroke-width="8" stroke="url(#SvgjsLinearGradient1931)" stroke-linecap="round" class="Up"></path><path d="M2273 377L2272 -2001" stroke-width="6" stroke="url(#SvgjsLinearGradient1932)" stroke-linecap="round" class="Down"></path><path d="M1510 2488L1509 614" stroke-width="10" stroke="url(#SvgjsLinearGradient1934)" stroke-linecap="round" class="Up"></path><path d="M903 1583L902 2674" stroke-width="8" stroke="url(#SvgjsLinearGradient1932)" stroke-linecap="round" class="Down"></path><path d="M488 1323L487 2729" stroke-width="6" stroke="url(#SvgjsLinearGradient1933)" stroke-linecap="round" class="Down"></path><path d="M708 615L707 -1237" stroke-width="8" stroke="url(#SvgjsLinearGradient1933)" stroke-linecap="round" class="Down"></path><path d="M3474 2439L3473 4324" stroke-width="10" stroke="url(#SvgjsLinearGradient1934)" stroke-linecap="round" class="Up"></path><path d="M2294 1014L2293 -1913" stroke-width="6" stroke="url(#SvgjsLinearGradient1932)" stroke-linecap="round" class="Down"></path><path d="M2663 2450L2662 1038" stroke-width="6" stroke="url(#SvgjsLinearGradient1931)" stroke-linecap="round" class="Up"></path><path d="M608 482L607 2015" stroke-width="6" stroke="url(#SvgjsLinearGradient1933)" stroke-linecap="round" class="Down"></path><path d="M3991 3935L3990 2058" stroke-width="8" stroke="url(#SvgjsLinearGradient1934)" stroke-linecap="round" class="Up"></path><path d="M721 3192L720 5587" stroke-width="8" stroke="url(#SvgjsLinearGradient1931)" stroke-linecap="round" class="Up"></path><path d="M942 3746L941 4756" stroke-width="6" stroke="url(#SvgjsLinearGradient1933)" stroke-linecap="round" class="Down"></path><path d="M807 2034L806 3182" stroke-width="6" stroke="url(#SvgjsLinearGradient1931)" stroke-linecap="round" class="Up"></path><path d="M2528 3642L2527 5342" stroke-width="8" stroke="url(#SvgjsLinearGradient1933)" stroke-linecap="round" class="Down"></path><path d="M941 2562L940 4254" stroke-width="8" stroke="url(#SvgjsLinearGradient1934)" stroke-linecap="round" class="Up"></path><path d="M1420 1309L1419 -1422" stroke-width="6" stroke="url(#SvgjsLinearGradient1932)" stroke-linecap="round" class="Down"></path><path d="M3207 3330L3206 1149" stroke-width="10" stroke="url(#SvgjsLinearGradient1932)" stroke-linecap="round" class="Down"></path><path d="M869 3745L868 1253" stroke-width="8" stroke="url(#SvgjsLinearGradient1933)" stroke-linecap="round" class="Down"></path><path d="M498 1491L497 2628" stroke-width="6" stroke="url(#SvgjsLinearGradient1931)" stroke-linecap="round" class="Up"></path><path d="M3921 1436L3920 -514" stroke-width="10" stroke="url(#SvgjsLinearGradient1931)" stroke-linecap="round" class="Up"></path><path d="M1956 2434L1955 1133" stroke-width="6" stroke="url(#SvgjsLinearGradient1931)" stroke-linecap="round" class="Up"></path><path d="M954 2459L953 -63" stroke-width="6" stroke="url(#SvgjsLinearGradient1932)" stroke-linecap="round" class="Down"></path><path d="M2889 3649L2888 4654" stroke-width="8" stroke="url(#SvgjsLinearGradient1931)" stroke-linecap="round" class="Up"></path><path d="M476 3178L475 4757" stroke-width="6" stroke="url(#SvgjsLinearGradient1932)" stroke-linecap="round" class="Down"></path><path d="M150 557L149 2371" stroke-width="8" stroke="url(#SvgjsLinearGradient1933)" stroke-linecap="round" class="Down"></path><path d="M1342 108L1341 2467" stroke-width="10" stroke="url(#SvgjsLinearGradient1934)" stroke-linecap="round" class="Up"></path><path d="M949 265L948 -2235" stroke-width="6" stroke="url(#SvgjsLinearGradient1933)" stroke-linecap="round" class="Down"></path><path d="M3155 2838L3154 528" stroke-width="6" stroke="url(#SvgjsLinearGradient1933)" stroke-linecap="round" class="Down"></path><path d="M843 1604L842 -349" stroke-width="8" stroke="url(#SvgjsLinearGradient1933)" stroke-linecap="round" class="Down"></path><path d="M872 2730L871 4825" stroke-width="6" stroke="url(#SvgjsLinearGradient1934)" stroke-linecap="round" class="Up"></path><path d="M1486 940L1485 -542" stroke-width="8" stroke="url(#SvgjsLinearGradient1932)" stroke-linecap="round" class="Down"></path><path d="M2835 3686L2834 4793" stroke-width="8" stroke="url(#SvgjsLinearGradient1932)" stroke-linecap="round" class="Down"></path><path d="M240 3225L239 2073" stroke-width="6" stroke="url(#SvgjsLinearGradient1934)" stroke-linecap="round" class="Up"></path><path d="M3705 2707L3704 5405" stroke-width="6" stroke="url(#SvgjsLinearGradient1934)" stroke-linecap="round" class="Up"></path><path d="M3474 545L3473 1990" stroke-width="6" stroke="url(#SvgjsLinearGradient1934)" stroke-linecap="round" class="Up"></path><path d="M3475 1436L3474 -1131" stroke-width="10" stroke="url(#SvgjsLinearGradient1931)" stroke-linecap="round" class="Up"></path><path d="M747 185L746 -1205" stroke-width="10" stroke="url(#SvgjsLinearGradient1932)" stroke-linecap="round" class="Down"></path><path d="M363 562L362 3384" stroke-width="10" stroke="url(#SvgjsLinearGradient1933)" stroke-linecap="round" class="Down"></path><path d="M842 3530L841 4537" stroke-width="10" stroke="url(#SvgjsLinearGradient1934)" stroke-linecap="round" class="Up"></path><path d="M2353 1602L2352 60" stroke-width="8" stroke="url(#SvgjsLinearGradient1931)" stroke-linecap="round" class="Up"></path><path d="M1044 185L1043 -1664" stroke-width="6" stroke="url(#SvgjsLinearGradient1934)" stroke-linecap="round" class="Up"></path><path d="M1784 739L1783 -1235" stroke-width="8" stroke="url(#SvgjsLinearGradient1932)" stroke-linecap="round" class="Down"></path><path d="M2933 285L2932 -2471" stroke-width="6" stroke="url(#SvgjsLinearGradient1931)" stroke-linecap="round" class="Up"></path><path d="M2112 3115L2111 5356" stroke-width="6" stroke="url(#SvgjsLinearGradient1932)" stroke-linecap="round" class="Down"></path><path d="M2363 3949L2362 5287" stroke-width="10" stroke="url(#SvgjsLinearGradient1931)" stroke-linecap="round" class="Up"></path><path d="M3550 2314L3549 4897" stroke-width="8" stroke="url(#SvgjsLinearGradient1931)" stroke-linecap="round" class="Up"></path><path d="M3139 2146L3138 3972" stroke-width="8" stroke="url(#SvgjsLinearGradient1931)" stroke-linecap="round" class="Up"></path></g><defs><mask id="SvgjsMask1929"><rect width="4000" height="4000" fill="#ffffff"></rect></mask><radialGradient cx="50%" cy="100%" r="4472.14" gradientUnits="userSpaceOnUse" id="SvgjsRadialGradient1930"><stop stop-color="rgba(0, 25, 59, 1)" offset="0.24"></stop><stop stop-color="rgba(0, 41, 95, 1)" offset="0.64"></stop></radialGradient><linearGradient x1="0%" y1="100%" x2="0%" y2="0%" id="SvgjsLinearGradient1931"><stop stop-color="rgba(89, 127, 166, 0)" offset="0"></stop><stop stop-color="rgba(89, 127, 166, 1)" offset="1"></stop></linearGradient><linearGradient x1="0%" y1="0%" x2="0%" y2="100%" id="SvgjsLinearGradient1932"><stop stop-color="rgba(89, 127, 166, 0)" offset="0"></stop><stop stop-color="rgba(89, 127, 166, 1)" offset="1"></stop></linearGradient><linearGradient x1="0%" y1="0%" x2="0%" y2="100%" id="SvgjsLinearGradient1933"><stop stop-color="rgba(156, 47, 126, 0)" offset="0"></stop><stop stop-color="rgba(156, 47, 126, 1)" offset="1"></stop></linearGradient><linearGradient x1="0%" y1="100%" x2="0%" y2="0%" id="SvgjsLinearGradient1934"><stop stop-color="rgba(156, 47, 126, 0)" offset="0"></stop><stop stop-color="rgba(156, 47, 126, 1)" offset="1"></stop></linearGradient></defs></svg>